# xmcd
#
# Track frame offsets: 
#        150
#        7296
#        19126
#        39161
#        50872
#        66693
#        84567
#        96003
#        109414
#        149991
#        155979
#        167267
#        181754
#        190485
#        210746
#        227833
#        240945
#        254309
#        279895
#        296880
#        316400
#        332805
#
# Disc length: 4720 seconds
#
# Revision: 0
# Processed by: cddbd v1.5.2PL0 Copyright (c) Steve Scherf et al.
# Submitted via: ExactAudioCopy v0.99pb5
#
DISCID=50126e16
DTITLE=Jay Electronica - What The F*ck Is A Jay Electronica
DYEAR=2011
DGENRE=Hip-Hop
TTITLE0=Spark It Up Intro
TTITLE1=Renaissance Man
TTITLE2=My World
TTITLE3=Extra Extra
TTITLE4=Abracadabra
TTITLE5=Uzi Weighs  A Ton
TTITLE6=A Prayer For Vick and TI
TTITLE7=Dimethyltriptamine
TTITLE8=Eternal Sunshine (The Pledge)
TTITLE9=Bitches and Drugs
TTITLE10=Trolley Stop
TTITLE11=Hard To Get
TTITLE12=Girlfriend
TTITLE13=Be Easy
TTITLE14=Dealing
TTITLE15=Get Em'
TTITLE16=Victory Is In My Clutches
TTITLE17=Somethin' To Hold On To
TTITLE18=I Feel Good
TTITLE19=So What You Sayin'
TTITLE20=Walk With It
TTITLE21=Katrina The Levees Broke
EXTD=
EXTT0=
EXTT1=
EXTT2=
EXTT3=
EXTT4=
EXTT5=
EXTT6=
EXTT7=
EXTT8=
EXTT9=
EXTT10=
EXTT11=
EXTT12=
EXTT13=
EXTT14=
EXTT15=
EXTT16=
EXTT17=
EXTT18=
EXTT19=
EXTT20=
EXTT21=
PLAYORDER=
